<?xml version="1.0" standalone="no"?>
<!DOCTYPE svg PUBLIC "-//W3C//DTD SVG 20010904//EN"
 "http://www.w3.org/TR/2001/REC-SVG-20010904/DTD/svg10.dtd">
<svg version="1.0" xmlns="http://www.w3.org/2000/svg"
 width="432.000000pt" height="432.000000pt" viewBox="0 0 432.000000 432.000000"
 preserveAspectRatio="xMidYMid meet">
<metadata>
Created by potrace 1.11, written by Peter Selinger 2001-2013
</metadata>
<g transform="translate(0.000000,432.000000) scale(0.100000,-0.100000)"
fill="#000000" stroke="none">
<path d="M405 2175 l0 -1505 1755 0 1755 0 -1 1503 c-1 826 -2 1503 -3 1504 0
1 -110 -75 -243 -169 -134 -94 -273 -192 -309 -217 -36 -25 -99 -70 -140 -99
-41 -29 -150 -107 -244 -173 -93 -66 -192 -136 -220 -155 -329 -233 -588 -414
-594 -414 -8 0 -50 28 -177 118 -44 31 -148 104 -230 162 -82 57 -153 108
-159 113 -5 5 -89 63 -185 131 -389 272 -797 561 -832 587 -20 16 -41 29 -47
29 -5 0 -11 3 -13 8 -3 6 -104 82 -111 82 -1 0 -2 -677 -2 -1505z"/>
</g>
</svg>
